<svg width="32" height="32" viewBox="0 0 32 32" fill="none" xmlns="http://www.w3.org/2000/svg">
<g clip-path="url(#clip0_4554_187)">
<rect width="32" height="32" rx="10.6667" fill="#E9EEFF"/>
<path d="M19.3333 12.6667H22.6667C23.1269 12.6667 23.5 13.0398 23.5 13.5V22.6667L20.7225 20.3592C20.5729 20.2349 20.384 20.1667 20.1895 20.1667H13.5C13.0398 20.1667 12.6667 19.7936 12.6667 19.3334V16.8334M19.3333 12.6667V10.1667C19.3333 9.70647 18.9602 9.33337 18.5 9.33337H9.33333C8.8731 9.33337 8.5 9.70647 8.5 10.1667V19.3336L11.2775 17.0257C11.4271 16.9014 11.616 16.8334 11.8105 16.8334H12.6667M19.3333 12.6667V16C19.3333 16.4603 18.9602 16.8334 18.5 16.8334H12.6667" stroke="#1E53FF" stroke-width="1.5" stroke-linecap="round" stroke-linejoin="round"/>
</g>
<defs>
<clipPath id="clip0_4554_187">
<rect width="32" height="32" fill="white"/>
</clipPath>
</defs>
</svg>
