<svg width="32" height="32" viewBox="0 0 32 32" fill="none" xmlns="http://www.w3.org/2000/svg">
<g clip-path="url(#clip0_4554_197)">
<rect width="32" height="32" rx="10.6667" fill="#E9EEFF"/>
<path d="M13.6221 13.5613C13.7644 13.1228 14.0251 12.7325 14.3757 12.4329C14.7262 12.1333 15.1532 11.9365 15.6086 11.8642C16.064 11.792 16.5302 11.847 16.9562 12.0234C17.3823 12.1997 17.7512 12.4906 18.0223 12.8636C18.2934 13.2366 18.4557 13.6771 18.492 14.1368C18.5282 14.5965 18.4365 15.0573 18.2272 15.4682C18.0179 15.879 17.6995 16.2237 17.3063 16.4647C16.9132 16.7056 16.4611 16.8331 16 16.8331V17.6669M16 23.5C11.8579 23.5 8.5 20.1421 8.5 16C8.5 11.8579 11.8579 8.5 16 8.5C20.1421 8.5 23.5 11.8579 23.5 16C23.5 20.1421 20.1421 23.5 16 23.5ZM16.0415 20.1667V20.25L15.9585 20.2502V20.1667H16.0415Z" stroke="#1E53FF" stroke-width="1.5" stroke-linecap="round" stroke-linejoin="round"/>
</g>
<defs>
<clipPath id="clip0_4554_197">
<rect width="32" height="32" fill="white"/>
</clipPath>
</defs>
</svg>
