<svg width="24" height="24" viewBox="0 0 24 24" fill="none" xmlns="http://www.w3.org/2000/svg">
<g clip-path="url(#clip0_2305_382)">
<path d="M15.0013 22.0001V16.1668C15.0013 15.8573 14.896 15.5606 14.7084 15.3418C14.5209 15.123 14.2666 15.0001 14.0013 15.0001H10.0013C9.73613 15.0001 9.48177 15.123 9.29424 15.3418C9.1067 15.5606 9.00134 15.8573 9.00134 16.1668V22.0001" stroke="#1E53FF" stroke-width="2" stroke-linecap="round" stroke-linejoin="round"/>
<path d="M18.3499 10.2295C18.1206 10.0079 17.8155 9.88414 17.4981 9.88414C17.1807 9.88414 16.8756 10.0079 16.6464 10.2295C16.135 10.7221 15.4554 10.9969 14.7487 10.9969C14.042 10.9969 13.3625 10.7221 12.8511 10.2295C12.6219 10.0082 12.317 9.88468 11.9999 9.88468C11.6828 9.88468 11.3779 10.0082 11.1487 10.2295C10.6373 10.7224 9.95747 10.9974 9.25052 10.9974C8.54356 10.9974 7.86377 10.7224 7.35234 10.2295C7.12308 10.0079 6.81796 9.88414 6.50058 9.88414C6.18321 9.88414 5.87808 10.0079 5.64882 10.2295C5.15486 10.7055 4.50318 10.9789 3.82062 10.9965C3.13806 11.014 2.47347 10.7744 1.95619 10.3243C1.43891 9.87426 1.10596 9.24592 1.02214 8.5616C0.938329 7.87727 1.10965 7.18594 1.50275 6.62215L4.67994 1.97523C4.88153 1.67482 5.15294 1.42886 5.47042 1.25887C5.7879 1.08887 6.14179 1.00002 6.50113 1.00009H17.4987C17.857 0.999953 18.2099 1.08821 18.5267 1.25719C18.8435 1.42617 19.1147 1.67076 19.3166 1.96968L22.5003 6.62548C22.8935 7.18971 23.0646 7.88158 22.9803 8.56625C22.896 9.25093 22.5622 9.87937 22.0441 10.3291C21.526 10.7789 20.8607 11.0177 20.1778 10.9991C19.4948 10.9805 18.8432 10.7057 18.3499 10.2284" stroke="#1E53FF" stroke-width="2" stroke-linecap="round" stroke-linejoin="round"/>
<path d="M3.00134 11.0001V19.811C3.00134 20.3916 3.2384 20.9484 3.66035 21.3589C4.08231 21.7695 4.65461 22.0001 5.25134 22.0001H18.7513C19.3481 22.0001 19.9204 21.7695 20.3423 21.3589C20.7643 20.9484 21.0013 20.3916 21.0013 19.811V11.0001" stroke="#1E53FF" stroke-width="2" stroke-linecap="round" stroke-linejoin="round"/>
</g>
<defs>
<clipPath id="clip0_2305_382">
<rect width="24" height="24" fill="white"/>
</clipPath>
</defs>
</svg>
