<svg width="24" height="24" viewBox="0 0 24 24" fill="none" xmlns="http://www.w3.org/2000/svg">
<g clip-path="url(#clip0_1458_5335)">
<g clip-path="url(#clip1_1458_5335)">
<path d="M15.0013 22V16.1667C15.0013 15.8572 14.896 15.5605 14.7084 15.3417C14.5209 15.1229 14.2665 15 14.0013 15H10.0013C9.7361 15 9.48174 15.1229 9.29421 15.3417C9.10667 15.5605 9.00131 15.8572 9.00131 16.1667V22" stroke="#868D9A" stroke-width="2" stroke-linecap="round" stroke-linejoin="round"/>
<path d="M18.3498 10.2294C18.1206 10.0078 17.8155 9.88405 17.4981 9.88405C17.1807 9.88405 16.8756 10.0078 16.6463 10.2294C16.135 10.722 15.4554 10.9968 14.7487 10.9968C14.042 10.9968 13.3625 10.722 12.8511 10.2294C12.6219 10.0081 12.317 9.88458 11.9999 9.88458C11.6828 9.88458 11.3779 10.0081 11.1487 10.2294C10.6372 10.7223 9.95744 10.9973 9.25049 10.9973C8.54353 10.9973 7.86374 10.7223 7.35231 10.2294C7.12305 10.0078 6.81793 9.88405 6.50055 9.88405C6.18318 9.88405 5.87805 10.0078 5.64879 10.2294C5.15483 10.7055 4.50315 10.9788 3.82059 10.9964C3.13803 11.0139 2.47344 10.7743 1.95616 10.3242C1.43888 9.87417 1.10593 9.24583 1.02211 8.5615C0.938299 7.87718 1.10962 7.18584 1.50272 6.62206L4.67991 1.97514C4.8815 1.67473 5.15291 1.42877 5.47039 1.25877C5.78787 1.08878 6.14176 0.999933 6.5011 1H17.4986C17.8569 0.999861 18.2098 1.08812 18.5267 1.2571C18.8435 1.42608 19.1146 1.67067 19.3165 1.96959L22.5003 6.62539C22.8935 7.18962 23.0646 7.88149 22.9803 8.56616C22.8959 9.25084 22.5622 9.87928 22.0441 10.329C21.526 10.7788 20.8607 11.0176 20.1777 10.999C19.4948 10.9804 18.8432 10.7056 18.3498 10.2283" stroke="#868D9A" stroke-width="2" stroke-linecap="round" stroke-linejoin="round"/>
<path d="M3.00131 11V19.8109C3.00131 20.3915 3.23837 20.9483 3.66032 21.3588C4.08228 21.7694 4.65458 22 5.25131 22H18.7513C19.348 22 19.9203 21.7694 20.3423 21.3588C20.7643 20.9483 21.0013 20.3915 21.0013 19.8109V11" stroke="#868D9A" stroke-width="2" stroke-linecap="round" stroke-linejoin="round"/>
</g>
</g>
<defs>
<clipPath id="clip0_1458_5335">
<rect width="24" height="24" fill="white"/>
</clipPath>
<clipPath id="clip1_1458_5335">
<rect width="24" height="24" fill="white"/>
</clipPath>
</defs>
</svg>
