<svg width="24" height="24" viewBox="0 0 24 24" fill="none" xmlns="http://www.w3.org/2000/svg">
<g clip-path="url(#clip0_2305_804)">
<g clip-path="url(#clip1_2305_804)">
<path d="M1 21H3.2M3.2 21H9.8M3.2 21V11.5851C3.2 10.9966 3.2 10.7022 3.27147 10.4283C3.3348 10.1856 3.43957 9.95593 3.58027 9.74839C3.73905 9.5142 3.9597 9.31999 4.40205 8.93244L9.6838 4.30489C10.5038 3.58643 10.9139 3.22718 11.3757 3.09043C11.7829 2.96986 12.2169 2.96986 12.6241 3.09043C13.0863 3.22728 13.4969 3.58687 14.3182 4.30642L19.5982 8.93244C20.0405 9.31998 20.2613 9.5142 20.42 9.74839C20.5607 9.95593 20.6647 10.1856 20.728 10.4283C20.7995 10.7022 20.8 10.9966 20.8 11.5851V21M9.8 21H14.2M9.8 21V16.5943C9.8 15.3777 10.785 14.3914 12 14.3914C13.215 14.3914 14.2 15.3777 14.2 16.5943V21M14.2 21H20.8M20.8 21H23" stroke="#868D9A" stroke-width="2" stroke-linecap="round" stroke-linejoin="round"/>
</g>
</g>
<defs>
<clipPath id="clip0_2305_804">
<rect width="24" height="24" fill="white"/>
</clipPath>
<clipPath id="clip1_2305_804">
<rect width="24" height="24" fill="white"/>
</clipPath>
</defs>
</svg>
