<svg width="32" height="24" viewBox="0 0 32 24" fill="none" xmlns="http://www.w3.org/2000/svg">
<path d="M18.4445 5H8.66669C7.52771 5 6.95791 5 6.50869 5.1903C5.90973 5.44404 5.43417 5.93101 5.18607 6.54358C5 7.00301 5 7.58543 5 8.75029C7.02506 8.75029 8.66669 10.4286 8.66669 12.4997C8.66669 14.5708 7.02506 16.25 5 16.25C5 17.4149 5 17.9973 5.18607 18.4567C5.43417 19.0693 5.90973 19.5558 6.50869 19.8096C6.95791 19.9999 7.52772 20 8.66669 20H18.4445M18.4445 5H23.3334C24.4724 5 25.0419 5 25.4911 5.1903C26.0901 5.44404 26.5658 5.93101 26.8139 6.54358C27 7.00301 27 7.58544 27 8.75029C24.9749 8.75029 23.3334 10.4289 23.3334 12.5C23.3334 14.5711 24.9749 16.25 27 16.25C27 17.4149 27 17.9973 26.8139 18.4567C26.5658 19.0693 26.0901 19.5558 25.4911 19.8096C25.0419 19.9999 24.4724 20 23.3334 20H18.4445M18.4445 5V20" stroke="#1E53FF" stroke-width="2" stroke-linecap="round" stroke-linejoin="round"/>
</svg>
